# xmcd
#
# Track frame offsets: 
#        150
#        19817
#        36553
#        50121
#        74825
#        91022
#        108351
#        120257
#        141673
#        158496
#        182825
#        199805
#        220236
#
# Disc length: 3155 seconds
#
# Revision: 0
# Processed by: cddbd v1.5.2PL0 Copyright (c) Steve Scherf et al.
# Submitted via: ExactAudioCopy v1.0b3
#
DISCID=c20c510d
DTITLE=Jonathan Godin - Treize
DYEAR=2013
DGENRE=Country
TTITLE0=L'héritage
TTITLE1=My Dream
TTITLE2=La déception
TTITLE3=La tempête
TTITLE4=Pourquoi pas
TTITLE5=Encore une fois
TTITLE6=Turn turn
TTITLE7=Breaking Doors
TTITLE8=Dit moi
TTITLE9=Si tu m'avais dit
TTITLE10=Mon voyage
TTITLE11=An Angel
TTITLE12=A Man Of My Words
EXTD=
EXTT0=
EXTT1=
EXTT2=
EXTT3=
EXTT4=
EXTT5=
EXTT6=
EXTT7=
EXTT8=
EXTT9=
EXTT10=
EXTT11=
EXTT12=
PLAYORDER=
